# xmcd
#
# Track frame offsets: 
#        150
#        16931
#        35836
#        56481
#        76563
#        91324
#        110729
#        130872
#        150040
#        165787
#        185718
#        201948
#        222548
#        247332
#        270045
#        289704
#
# Disc length: 4104 seconds
#
# Revision: 2
# Processed by: cddbd v1.5.2PL0 Copyright (c) Steve Scherf et al.
# Submitted via: ExactAudioCopyFreeDBPlugin 1.0
#
DISCID=d2100610
DTITLE=Various Artist - ALL STAR EVERGREEN BEST (Disc-2)
DYEAR=1900
DGENRE=Soundtrack
TTITLE0=村下孝蔵 - 初恋
TTITLE1=五輪真弓 - 恋人よ
TTITLE2=谷村新司 - 昴 -すばる-
TTITLE3=さだまさし - 雨やどり
TTITLE4=松山千春 - 季節の中で
TTITLE5=南こうせつ - 夢一夜
TTITLE6=ばんばひろふみ - SACHIKO
TTITLE7=雅夢 - 愛はかげろう
TTITLE8=イルカ - 雨の物語
TTITLE9=太田裕美 - 九月の雨
TTITLE10=紙ふうせん - 冬が来る前に
TTITLE11=ふきのとう - 春雷
TTITLE12=榊原まさとし - 不良少女白書
TTITLE13=伊藤敏博 - サヨナラ模様
TTITLE14=岸田智史 - きみの朝
TTITLE15=五十嵐浩晃 - ペガサスの朝
EXTD=
EXTT0=
EXTT1=
EXTT2=
EXTT3=
EXTT4=
EXTT5=
EXTT6=
EXTT7=
EXTT8=
EXTT9=
EXTT10=
EXTT11=
EXTT12=
EXTT13=
EXTT14=
EXTT15=
PLAYORDER=
